# xmcd
#
# Track frame offsets: 
#        150
#        2537
#        18680
#        39062
#        59725
#        77075
#        98750
#        116277
#        133425
#        156582
#        177425
#        197162
#
# Disc length: 2847 seconds
#
# Revision: 10
# Processed by: cddbd v1.5.2PL0 Copyright (c) Steve Scherf et al.
# Submitted via: ExactAudioCopy v1.0b3
#
DISCID=9f0b1d0c
DTITLE=張惠妹 - 真實
DYEAR=2001
DGENRE=Chinese
TTITLE0=Opening
TTITLE1=感應
TTITLE2=我恨我愛你
TTITLE3=真實
TTITLE4=了不起
TTITLE5=記得
TTITLE6=永遠的畫面
TTITLE7=A級娛樂
TTITLE8=女人說
TTITLE9=因為你沒說
TTITLE10=瞬間
TTITLE11=排山倒海
EXTD=
EXTT0=
EXTT1=
EXTT2=
EXTT3=
EXTT4=
EXTT5=
EXTT6=
EXTT7=
EXTT8=
EXTT9=
EXTT10=
EXTT11=
PLAYORDER=
